<?xml version="1.0" encoding="UTF-8" standalone="no"?>
<!-- Created with Inkscape (http://www.inkscape.org/) -->

<svg
   xmlns:dc="http://purl.org/dc/elements/1.1/"
   xmlns:cc="http://creativecommons.org/ns#"
   xmlns:rdf="http://www.w3.org/1999/02/22-rdf-syntax-ns#"
   xmlns:svg="http://www.w3.org/2000/svg"
   xmlns="http://www.w3.org/2000/svg"
   xmlns:xlink="http://www.w3.org/1999/xlink"
   xmlns:sodipodi="http://sodipodi.sourceforge.net/DTD/sodipodi-0.dtd"
   xmlns:inkscape="http://www.inkscape.org/namespaces/inkscape"
   version="1.1"
   width="800"
   height="75"
   id="svg2"
   inkscape:version="0.48.3.1 r9886"
   sodipodi:docname="diy-logo_debian_joy.svg"
   enable-background="new">
  <sodipodi:namedview
     pagecolor="#ffffff"
     bordercolor="#666666"
     borderopacity="1"
     objecttolerance="10"
     gridtolerance="10"
     guidetolerance="10"
     inkscape:pageopacity="0"
     inkscape:pageshadow="2"
     inkscape:window-width="1030"
     inkscape:window-height="598"
     id="namedview36"
     showgrid="false"
     inkscape:zoom="3.32"
     inkscape:cx="730.3152"
     inkscape:cy="33.672836"
     inkscape:window-x="237"
     inkscape:window-y="213"
     inkscape:window-maximized="0"
     inkscape:current-layer="svg2"
     showguides="false">
    <inkscape:grid
       type="xygrid"
       id="grid3876" />
    <sodipodi:guide
       position="0,0"
       orientation="0,800"
       id="guide3878" />
    <sodipodi:guide
       position="800,0"
       orientation="-75,0"
       id="guide3880" />
    <sodipodi:guide
       position="800,75"
       orientation="0,-800"
       id="guide3882" />
    <sodipodi:guide
       position="0,75"
       orientation="75,0"
       id="guide3884" />
  </sodipodi:namedview>
  <defs
     id="defs4">
    <linearGradient
       id="linearGradient3755">
      <stop
         id="stop3757"
         style="stop-color:#8f9db3;stop-opacity:1"
         offset="0" />
      <stop
         id="stop3759"
         style="stop-color:#161b2b;stop-opacity:1"
         offset="1" />
    </linearGradient>
    <radialGradient
       cx="188.32169"
       cy="-60.857712"
       r="960"
       fx="188.32169"
       fy="-60.857712"
       id="radialGradient3765"
       xlink:href="#linearGradient3755"
       gradientUnits="userSpaceOnUse"
       gradientTransform="matrix(1.2448906,0,0,0.8766271,-235.09492,1068.2117)" />
    <filter
       inkscape:collect="always"
       id="filter3141">
      <feBlend
         inkscape:collect="always"
         mode="darken"
         in2="BackgroundImage"
         id="feBlend3143" />
    </filter>
    <filter
       inkscape:collect="always"
       id="filter3145">
      <feBlend
         inkscape:collect="always"
         mode="lighten"
         in2="BackgroundImage"
         id="feBlend3147" />
    </filter>
  </defs>
  <metadata
     id="metadata7">
    <rdf:RDF>
      <cc:Work
         rdf:about="">
        <dc:format>image/svg+xml</dc:format>
        <dc:type
           rdf:resource="http://purl.org/dc/dcmitype/StillImage" />
        <dc:title />
      </cc:Work>
    </rdf:RDF>
  </metadata>
  <g
     inkscape:groupmode="layer"
     id="layer2"
     inkscape:label="Background"
     style="display:inline"
     sodipodi:insensitive="true" />
  <g
     transform="matrix(1.0011471,0,0,1.0112324,0.00470632,-988.33563)"
     id="layer1"
     style="fill:#000000">
    <rect
       width="800"
       height="75"
       x="0"
       y="977.36218"
       id="rect2985"
       style="fill:#000000;fill-opacity:1;stroke:none" />
    <g
       transform="matrix(0.55599379,0,0,0.55599379,740.90301,984.71369)"
       id="g3966"
       style="fill:#000000;fill-opacity:1;overflow:visible">
      <g
         id="Layer_1-9"
         style="fill:#000000;fill-opacity:1">
        <g
           id="g3936"
           style="fill:#000000;fill-opacity:1">
          <path
             d="m 51.986,57.297 c -1.797,0.025 0.34,0.926 2.686,1.287 0.648,-0.506 1.236,-1.018 1.76,-1.516 -1.461,0.358 -2.948,0.366 -4.446,0.229"
             id="path3938-8"
             style="fill:#000000;fill-opacity:1"
             inkscape:connector-curvature="0" />
          <path
             d="m 61.631,54.893 c 1.07,-1.477 1.85,-3.094 2.125,-4.766 -0.24,1.192 -0.887,2.221 -1.496,3.307 -3.359,2.115 -0.316,-1.256 -0.002,-2.537 -3.612,4.546 -0.496,2.726 -0.627,3.996"
             id="path3940-0"
             style="fill:#000000;fill-opacity:1"
             inkscape:connector-curvature="0" />
          <path
             d="m 65.191,45.629 c 0.217,-3.236 -0.637,-2.213 -0.924,-0.978 0.335,0.174 0.6,2.281 0.924,0.978"
             id="path3942"
             style="fill:#000000;fill-opacity:1"
             inkscape:connector-curvature="0" />
          <path
             d="m 45.172,1.399 c 0.959,0.172 2.072,0.304 1.916,0.533 1.049,-0.23 1.287,-0.442 -1.916,-0.533"
             id="path3944"
             style="fill:#000000;fill-opacity:1"
             inkscape:connector-curvature="0" />
          <path
             d="M 47.088,1.932 46.41,2.072 47.041,2.016 47.088,1.932"
             id="path3946"
             style="fill:#000000;fill-opacity:1"
             inkscape:connector-curvature="0" />
          <path
             d="m 76.992,46.856 c 0.107,2.906 -0.85,4.316 -1.713,6.812 l -1.553,0.776 c -1.271,2.468 0.123,1.567 -0.787,3.53 -1.984,1.764 -6.021,5.52 -7.313,5.863 -0.943,-0.021 0.639,-1.113 0.846,-1.541 -2.656,1.824 -2.131,2.738 -6.193,3.846 L 60.16,65.878 C 50.142,70.591 36.226,61.251 36.409,48.507 c -0.107,0.809 -0.304,0.607 -0.526,0.934 -0.517,-6.557 3.028,-13.143 9.007,-15.832 5.848,-2.895 12.704,-1.707 16.893,2.197 -2.301,-3.014 -6.881,-6.209 -12.309,-5.91 -5.317,0.084 -10.291,3.463 -11.951,7.131 -2.724,1.715 -3.04,6.611 -4.227,7.507 -1.597,11.737 3.004,16.808 10.787,22.773 1.225,0.826 0.345,0.951 0.511,1.58 -2.586,-1.211 -4.954,-3.039 -6.901,-5.277 1.033,1.512 2.148,2.982 3.589,4.137 -2.438,-0.826 -5.695,-5.908 -6.646,-6.115 4.203,7.525 17.052,13.197 23.78,10.383 -3.113,0.115 -7.068,0.064 -10.566,-1.229 -1.469,-0.756 -3.467,-2.322 -3.11,-2.615 9.182,3.43 18.667,2.598 26.612,-3.771 2.021,-1.574 4.229,-4.252 4.867,-4.289 -0.961,1.445 0.164,0.695 -0.574,1.971 2.014,-3.248 -0.875,-1.322 2.082,-5.609 l 1.092,1.504 c -0.406,-2.696 3.348,-5.97 2.967,-10.234 0.861,-1.304 0.961,1.403 0.047,4.403 1.268,-3.328 0.334,-3.863 0.66,-6.609 0.352,0.923 0.814,1.904 1.051,2.878 -0.826,-3.216 0.848,-5.416 1.262,-7.285 -0.408,-0.181 -1.275,1.422 -1.473,-2.377 0.029,-1.65 0.459,-0.865 0.625,-1.271 -0.324,-0.186 -1.174,-1.451 -1.691,-3.877 0.375,-0.57 1.002,1.478 1.512,1.562 -0.328,-1.929 -0.893,-3.4 -0.916,-4.88 -1.49,-3.114 -0.527,0.415 -1.736,-1.337 -1.586,-4.947 1.316,-1.148 1.512,-3.396 2.404,3.483 3.775,8.881 4.404,11.117 -0.48,-2.726 -1.256,-5.367 -2.203,-7.922 0.73,0.307 -1.176,-5.609 0.949,-1.691 C 83.519,18.706 76.074,10.902 69.225,7.24 70.063,8.007 71.121,8.97 70.741,9.121 67.335,7.093 67.934,6.935 67.446,6.078 64.671,4.949 64.489,6.169 62.651,6.08 57.421,3.306 56.413,3.601 51.6,1.863 l 0.219,1.023 c -3.465,-1.154 -4.037,0.438 -7.782,0.004 -0.228,-0.178 1.2,-0.644 2.375,-0.815 -3.35,0.442 -3.193,-0.66 -6.471,0.122 0.808,-0.567 1.662,-0.942 2.524,-1.424 -2.732,0.166 -6.522,1.59 -5.352,0.295 -4.456,1.988 -12.37,4.779 -16.811,8.943 l -0.14,-0.933 c -2.035,2.443 -8.874,7.296 -9.419,10.46 l -0.544,0.127 c -1.059,1.793 -1.744,3.825 -2.584,5.67 -1.385,2.36 -2.03,0.908 -1.833,1.278 -2.724,5.523 -4.077,10.164 -5.246,13.97 0.833,1.245 0.02,7.495 0.335,12.497 -1.368,24.704 17.338,48.69 37.785,54.228 2.997,1.072 7.454,1.031 11.245,1.141 -4.473,-1.279 -5.051,-0.678 -9.408,-2.197 -3.143,-1.48 -3.832,-3.17 -6.058,-5.102 l 0.881,1.557 c -4.366,-1.545 -2.539,-1.912 -6.091,-3.037 l 0.941,-1.229 C 28.751,98.334 26.418,96.056 25.78,94.795 l -1.548,0.061 c -1.86,-2.295 -2.851,-3.949 -2.779,-5.23 l -0.5,0.891 c -0.567,-0.973 -6.843,-8.607 -3.587,-6.83 -0.605,-0.553 -1.409,-0.9 -2.281,-2.484 l 0.663,-0.758 c -1.567,-2.016 -2.884,-4.6 -2.784,-5.461 0.836,1.129 1.416,1.34 1.99,1.533 -3.957,-9.818 -4.179,-0.541 -7.176,-9.994 L 8.412,66.472 C 7.926,65.74 7.631,64.945 7.24,64.165 l 0.276,-2.75 C 4.667,58.121 6.719,47.409 7.13,41.534 7.415,39.145 9.508,36.602 11.1,32.614 l -0.97,-0.167 c 1.854,-3.234 10.586,-12.988 14.63,-12.486 1.959,-2.461 -0.389,-0.009 -0.772,-0.629 4.303,-4.453 5.656,-3.146 8.56,-3.947 3.132,-1.859 -2.688,0.725 -1.203,-0.709 5.414,-1.383 3.837,-3.144 10.9,-3.846 0.745,0.424 -1.729,0.655 -2.35,1.205 4.511,-2.207 14.275,-1.705 20.617,1.225 7.359,3.439 15.627,13.605 15.953,23.17 l 0.371,0.1 c -0.188,3.802 0.582,8.199 -0.752,12.238 l 0.908,-1.912"
             id="path3948"
             style="fill:#000000;fill-opacity:1"
             inkscape:connector-curvature="0" />
          <path
             d="m 32.372,59.764 -0.252,1.26 c 1.181,1.604 2.118,3.342 3.626,4.596 -1.085,-2.118 -1.891,-2.993 -3.374,-5.856"
             id="path3950"
             style="fill:#000000;fill-opacity:1"
             inkscape:connector-curvature="0" />
          <path
             d="m 35.164,59.654 c -0.625,-0.691 -0.995,-1.523 -1.409,-2.352 0.396,1.457 1.207,2.709 1.962,3.982 l -0.553,-1.63"
             id="path3952"
             style="fill:#000000;fill-opacity:1"
             inkscape:connector-curvature="0" />
          <path
             d="m 84.568,48.916 -0.264,0.662 c -0.484,3.438 -1.529,6.84 -3.131,9.994 1.77,-3.328 2.915,-6.968 3.395,-10.656"
             id="path3954"
             style="fill:#000000;fill-opacity:1"
             inkscape:connector-curvature="0" />
          <path
             d="M 45.527,0.537 C 46.742,0.092 48.514,0.293 49.803,0 48.123,0.141 46.451,0.225 44.8,0.438 l 0.727,0.099"
             id="path3956"
             style="fill:#000000;fill-opacity:1"
             inkscape:connector-curvature="0" />
          <path
             d="m 2.872,23.219 c 0.28,2.592 -1.95,3.598 0.494,1.889 1.31,-2.951 -0.512,-0.815 -0.494,-1.889"
             id="path3958"
             style="fill:#000000;fill-opacity:1"
             inkscape:connector-curvature="0" />
          <path
             d="M 0,35.215 C 0.563,33.487 0.665,32.449 0.88,31.449 -0.676,33.438 0.164,33.862 0,35.215"
             id="path3960"
             style="fill:#000000;fill-opacity:1"
             inkscape:connector-curvature="0" />
        </g>
      </g>
    </g>
  </g>
  <g
     inkscape:groupmode="layer"
     id="layer5"
     inkscape:label="Swirl"
     style="opacity:0.43333333;filter:url(#filter3145)"
     sodipodi:insensitive="true" />
  <g
     transform="translate(0,-1005)"
     id="layer3" />
  <path
     style="fill:#000000;fill-opacity:1"
     d="m 566.7596,1.141247 c 42.9126,-0.029602 113.06952,-0.029602 155.90427,4e-7 42.83474,0.029603 7.72444,0.053823 -78.02291,0.053823 -85.74735,-2e-7 -120.79396,-0.024221 -77.88136,-0.053823 z"
     id="path3012"
     inkscape:connector-curvature="0" />
  <path
     style="fill:#000000;fill-opacity:1"
     d="m 640.84675,1.1416476 c 2.01313,-0.034973 5.36763,-0.035033 7.45444,-1.326e-4 2.08682,0.034901 0.43971,0.063515 -3.66023,0.063588 -4.09994,7.29e-5 -5.80734,-0.028482 -3.79421,-0.063456 z"
     id="path3014"
     inkscape:connector-curvature="0" />
  <path
     style="fill:#000000;fill-opacity:1;opacity:1"
     d="m 739.36558,1.141259 c 11.21627,-0.030469 29.57016,-0.030469 40.78643,0 11.21627,0.030469 2.03932,0.055398 -20.39322,0.055398 -22.43253,0 -31.60948,-0.024929 -20.39321,-0.055398 z"
     id="path3016"
     inkscape:connector-curvature="0" />
  <g
     inkscape:groupmode="layer"
     id="layer4"
     inkscape:label="Star"
     style="opacity:0;filter:url(#filter3141)"
     sodipodi:insensitive="true">
    <path
       style="fill:#000000;stroke:#000000;stroke-width:1px;stroke-linecap:butt;stroke-linejoin:miter;stroke-opacity:1"
       d="m 5.8570592,0.34911792 c 0.159738,0 0.319476,0 0.479214,0 0.1952353,0 0.3904706,0 0.5857059,0 0.035497,0 0.070995,0 0.106492,0 0.035497,0 0.072055,-0.008609 0.106492,0 0.038502,0.009626 0.06799,0.0436204 0.1064919,0.053246 0.044161,0.0110404 0.2313936,-0.0174182 0.26623,0 0.015875,0.007937 0,0.0354973 0,0.053246 0.035497,0 0.070995,0 0.106492,0 0.012914,0 0.1580256,-0.001712 0.159738,0 0.01255,0.0125502 -0.015875,0.0453085 0,0.053246 0.042597,0.0212984 0.1171412,-0.0212984 0.1597379,0 0.02245,0.0112252 0.030796,0.0420207 0.053246,0.053246 0.015875,0.007937 0.053246,-0.0177487 0.053246,0 0,0.0177487 -0.035497,0 -0.053246,0 -0.4259679,0 -0.8519358,0 -1.2779038,0 -0.070995,0 -0.1419893,0 -0.212984,0 -0.017749,0 -0.035497,0 -0.053246,0 -0.017749,0 -0.053246,0.0177487 -0.053246,0 0,-0.0177487 0.035497,0 0.053246,0 0.035497,0 0.070995,0 0.106492,0 0.106492,0 0.212984,0 0.319476,0 0.1952353,0 0.3904706,0 0.5857059,0 0.070995,0 0.143368,-0.0139232 0.212984,0 0.1100725,0.0220145 0.2090342,0.0864117 0.3194759,0.10649199 0.087312,0.0158749 0.1774867,0 0.26623,0 0.1419893,0.0177487 0.28605,0.0232636 0.4259679,0.053246 0.7349453,0.15748828 -0.1484816,0.0852442 0.7454439,0.15973798 0.7646353,0.0637196 -0.6241298,-0.13547517 0.5857063,0.10649199 0.140315,0.0280631 0.283749,0.0374439 0.425968,0.053246 0.180443,0.020049 -0.158307,-0.0527688 0.159738,0.053246 0.01684,0.00561 0.0355,0 0.05325,0 0.0355,0 0.07099,0 0.106492,0 0.01775,0 -0.0355,0 -0.05325,0 -0.071,0 -0.14199,0 -0.212984,0 -0.14199,0 -0.283979,0 -0.425968,0 -0.05325,0 -0.1064923,0 -0.1597383,0 -0.017749,0 -0.053246,0.017749 -0.053246,0 0,-0.014942 0.061792,0.00894 0.106492,0 0.071758,-0.014352 0.1408003,-0.041215 0.2129843,-0.053246 0.03501,-0.00584 0.07135,0.00502 0.106492,0 0.179182,-0.025597 0.353277,-0.0808945 0.53246,-0.10649202 0.03514,-0.00502 0.07148,0.005836 0.106492,0 0.07218,-0.0120306 0.140539,-0.0428968 0.212984,-0.053246 0.05271,-0.00753 0.107216,0.008754 0.159737,0 0.05536,-0.009227 0.104702,-0.0422387 0.159738,-0.053246 0.03481,-0.006962 0.07168,0.006962 0.106492,0 0.05504,-0.0110073 0.104702,-0.0422387 0.159738,-0.053246 0.03481,-0.006962 0.07206,0.008609 0.106492,0 0.0385,-0.009626 0.06884,-0.0406958 0.106492,-0.053246 0.01684,-0.005613 0.07099,0 0.05325,0 -0.04459,0 -0.225738,0.0101229 -0.26623,0 -0.0385,-0.009626 -0.06799,-0.0436204 -0.106492,-0.053246 -0.05166,-0.0129141 -0.106492,0 -0.159738,0 -0.01775,0 -0.05325,0.0177487 -0.05325,0 0,-0.0657962 0.07467,-0.053246 0.106492,-0.053246 0.05325,0 0.108082,0.0129141 0.159738,0 0.0385,-0.009626 0.06884,-0.0406958 0.106492,-0.053246 0.05658,-0.0188599 0.156405,0.0188599 0.212984,0 0.01684,-0.005613 -0.0079,-0.0373711 0,-0.053246 0.01123,-0.0224505 0.05325,-0.0281456 0.05325,-0.053246 0,-0.0177487 -0.0355,0 -0.05325,0 -0.0355,0 -0.07099,0 -0.106492,0 -0.106492,0 -0.212984,0 -0.319476,0 -0.102,0 -0.290273,-0.0292027 -0.372721,0.053246 -0.01255,0.0125502 0.0355,0 0.05325,0 0.0355,0 0.07205,0.008609 0.106491,0 0.05445,-0.0136126 0.105288,-0.0396334 0.159738,-0.053246 0.05166,-0.0129141 0.108082,0.0129141 0.159738,0 0.0385,-0.009626 0.06884,-0.0406958 0.106492,-0.053246 0.03368,-0.0112252 0.08139,0.0251004 0.106492,0 0.01255,-0.0125502 0,-0.0354973 0,-0.053246"
       id="path3872"
       inkscape:connector-curvature="0" />
    <path
       style="fill:none;stroke:#000000;stroke-width:1px;stroke-linecap:butt;stroke-linejoin:miter;stroke-opacity:1"
       d="m 14.74914,0.40236392 c -0.530676,0 -0.05934,-0.0502008 -0.26623,0.053246 -0.01588,0.007937 -0.0407,-0.0125502 -0.05325,0 -0.01255,0.0125502 -0.01255,0.0406958 0,0.053246 0.01255,0.0125502 0.0407,-0.0125502 0.05325,0 0.01255,0.0125502 0,0.0354973 0,0.053246 0.08874,-0.053246 0.162738,-0.15973797 0.26623,-0.15973797 0.13517,0 0.244489,0.11699353 0.372722,0.15973797 0.03368,0.0112252 0.07148,-0.005836 0.106492,0 0.449393,0.0748988 -0.05345,0.0479007 0.53246,0.10649199 0.07064,0.007064 0.14368,-0.0154009 0.212984,0 0.0933,0.0207341 0.178378,0.0688414 0.26623,0.10649199 0.03648,0.0156336 0.06734,0.0467215 0.106492,0.053246 0.07003,0.0116714 0.143368,-0.0139232 0.212984,0 0.02461,0.004923 0.02863,0.0483234 0.05325,0.053246 0.06962,0.0139232 0.141989,0 0.212984,0 0.01775,0 0.03737,-0.007937 0.05325,0 0.02245,0.0112252 0.0308,0.0420208 0.05325,0.053246 0.01377,0.006883 0.281735,0 0.319476,0 0.141989,0 0.283978,0 0.425968,0 0.01775,0 0.0355,0 0.05325,0 0.01775,0 0.05325,0.0177487 0.05325,0 0,-0.0882974 -0.07467,-0.0373353 -0.106492,-0.053246 -0.176595,-0.17659473 0.0502,0.0251004 -0.106492,-0.053246 -0.06841,-0.0342043 -0.03808,-0.0722877 -0.106492,-0.10649199 -0.03175,-0.0158749 -0.08139,0.0251004 -0.106492,0 -0.01255,-0.0125502 0,-0.0354973 0,-0.053246 0,-0.0177487 -0.01255,-0.0406958 0,-0.053246 0.0355,-0.035503 0.07099,0.035503 0.106492,0 0.01255,-0.0125502 -0.01255,-0.0406958 0,-0.053246 0.01255,-0.0125502 0.0355,0 0.05325,0 0.01775,0 0.0355,0 0.05325,0 0.01775,0 0.0355,0 0.05325,0 0.01775,0 0.04069,0.0125502 0.05325,0 0.01255,-0.0125502 -0.01255,-0.0406958 0,-0.053246 0.01255,-0.0125502 0.0355,0 0.05325,0 0.106492,0 0.212984,0 0.319476,0 0.01775,0 0.03737,-0.007937 0.05325,0 0.02245,0.0112252 0.0308,0.0420207 0.05325,0.053246 0.01587,0.007937 0.03737,-0.007937 0.05325,0 0.06817,0.0340828 0.03833,0.0724092 0.106492,0.10649199 0.014,0.007 0.18514,0 0.212984,0 0.12424,0 0.248481,0 0.372721,0 0.05325,0 0.107217,-0.008754 0.159738,0 0.05536,0.009227 0.105288,0.0396334 0.159738,0.053246 0.01722,0.004305 0.03603,-0.004305 0.05325,0 0.05325,0.0177487 0.106492,0.0354973 0.159738,0.053246 0.01775,0 0.03603,-0.004305 0.05325,0 0.05445,0.0136126 0.104702,0.0422387 0.159738,0.053246 0.03481,0.006962 0.07099,0 0.106492,0 0.0355,0.0177487 0.06884,0.0406958 0.106492,0.053246 0.01684,0.005613 0.0407,-0.0125502 0.05325,0 0.01255,0.0125502 -0.01255,0.0406958 0,0.053246 0.01255,0.0125502 0.0355,0 0.05325,0 0.02784,0 0.198984,0.007 0.212984,0 0.02245,-0.0112252 0.02943,-0.0453085 0.05325,-0.053246 0.03368,-0.0112252 0.07282,0.0112252 0.106492,0 0.02381,-0.007937 0.02863,-0.0483234 0.05325,-0.053246 0.102356,-0.0417696 0.215052,0.0208848 0.319476,0 0.378483,-0.0756965 -0.08789,-0.053246 0.372722,-0.053246 0.195236,0 0.390471,0 0.585706,0 0.05325,0 0.106492,0 0.159738,0 0.01775,0 0.05325,-0.0177487 0.05325,0 0,0.0177487 -0.0355,0 -0.05325,0"
       id="path3874"
       inkscape:connector-curvature="0" />
  </g>
  <text
     xml:space="preserve"
     style="font-size:64px;font-style:normal;font-variant:normal;font-weight:normal;font-stretch:normal;text-align:start;line-height:125%;letter-spacing:0px;word-spacing:0px;writing-mode:lr-tb;text-anchor:start;fill:#ffffff;fill-opacity:1;stroke:none;font-family:Sans;-inkscape-font-specification:Sans"
     x="676.80719"
     y="61.144577"
     id="text3042"
     sodipodi:linespacing="125%"><tspan
       sodipodi:role="line"
       id="tspan3044"
       x="676.80719"
       y="61.144577">DIY</tspan></text>
</svg>
